# xmcd
#
# Track frame offsets:
#	150
#	17007
#	33170
#	52625
#	67055
#	84462
#	97117
#	116020
#	132247
#	146207
#	161870
#	181354
#	201044
#	218559
#	237101
#	253774
#	271389
#	290544
#	310076
#	328791
#
# Disc length: 4645 seconds
#
# Revision: 1
# Processed by: cddbd v1.5.2PL0 Copyright (c) Steve Scherf et al.
# Submitted via: EasyCDDAExtractor 15.3.0.1
#
DISCID=26122314
DTITLE=Ednita Nazario - Mi Generacion - Los Clasicos
DYEAR=2012
DGENRE=Latin
TTITLE0=Que Me Ame Mas
TTITLE1=Mas Que Nunca, Hoy
TTITLE2=El Dolor De Tu Presencia
TTITLE3=Te Amaria
TTITLE4=Tu, Sin Mi
TTITLE5=Alma De Gitana
TTITLE6=No Hay Nadie
TTITLE7=Tema Para Una Voz Triste Y Un Piano
TTITLE8=Esta Herido Mi Amor
TTITLE9=Te Borrare
TTITLE10=Fuerza De Gravedad
TTITLE11=Aprendere
TTITLE12=De Todos Modos
TTITLE13=Operadora
TTITLE14=Lo Mejor De Ti
TTITLE15=Mi Corazon Tiene Mente Propia
TTITLE16=No Te Enamores De Mi
TTITLE17=Contigo, Mi Amor
TTITLE18=Musica Electrica
TTITLE19=Antes Y Despues De Ti
EXTD=
EXTT0=
EXTT1=
EXTT2=
EXTT3=
EXTT4=
EXTT5=
EXTT6=
EXTT7=
EXTT8=
EXTT9=
EXTT10=
EXTT11=
EXTT12=
EXTT13=
EXTT14=
EXTT15=
EXTT16=
EXTT17=
EXTT18=
EXTT19=
PLAYORDER=
